<svg height="480pt" viewBox="0 0 480 480" width="480pt" xmlns="http://www.w3.org/2000/svg"><path d="m240 384-71.6875-40.96875c-24.929688-14.238281-40.3125-40.75-40.3125-69.457031v-129.574219h12.046875c37.984375 0 74.015625-16.871094 98.335937-46.054688l1.617188-1.945312" fill="#f3c6b0"/><path d="m240 96 1.617188 1.945312c24.320312 29.183594 60.351562 46.054688 98.335937 46.054688h12.046875v129.574219c0 28.714843-15.382812 55.21875-40.3125 69.457031l-71.6875 40.96875" fill="#dcb29c"/><path d="m266.167969 252.527344c.742187-2.574219 1.257812-5.253906 1.257812-8.078125.007813-15.714844-12.273437-28.449219-27.425781-28.449219s-27.433594 12.734375-27.433594 28.449219c0 2.824219.523438 5.503906 1.257813 8.078125-13.128907 8.878906-21.824219 24.226562-21.824219 41.695312 0 27.488282 21.488281 49.777344 48 49.777344s48-22.289062 48-49.777344c0-17.46875-8.695312-32.816406-21.832031-41.695312zm0 0" fill="#999"/><path d="m250.167969 252.527344c.742187-2.574219 1.257812-5.253906 1.257812-8.078125 0-12.800781-8.210937-23.503907-19.433593-27.074219-11.214844 3.570312-19.433594 14.265625-19.433594 27.074219 0 2.824219.519531 5.503906 1.257812 8.078125-13.121094 8.878906-21.816406 24.226562-21.816406 41.695312 0 24.65625 17.304688 45.074219 40 49.035156 22.695312-3.960937 40-24.378906 40-49.035156 0-17.46875-8.695312-32.816406-21.832031-41.695312zm0 0" fill="#bab8b9"/><g fill="#999"><path d="m200 200c0-13.253906-7.164062-24-16-24s-16 10.746094-16 24 7.164062 24 16 24 16-10.746094 16-24zm0 0"/><path d="m256 168c0-13.253906-7.164062-24-16-24s-16 10.746094-16 24 7.164062 24 16 24 16-10.746094 16-24zm0 0"/><path d="m312 200c0-13.253906-7.164062-24-16-24s-16 10.746094-16 24 7.164062 24 16 24 16-10.746094 16-24zm0 0"/></g><path d="m240 480c-132.335938 0-240-107.664062-240-240s107.664062-240 240-240 240 107.664062 240 240h-16c0-123.511719-100.488281-224-224-224s-224 100.488281-224 224 100.488281 224 224 224zm0 0" fill="#599072"/><path d="m240 432c-105.863281 0-192-86.136719-192-192h16c0 97.046875 78.953125 176 176 176s176-78.953125 176-176-78.953125-176-176-176v-16c105.863281 0 192 86.136719 192 192s-86.136719 192-192 192zm0 0" fill="#599072"/></svg>