<svg viewBox="0 0 512 512" xmlns="http://www.w3.org/2000/svg"><path d="m512 256c0 141.386719-114.613281 256-256 256s-256-114.613281-256-256 114.613281-256 256-256 256 114.613281 256 256zm0 0" fill="#414952"/><path d="m511.117188 277.210938-89.089844-89.089844-38.53125 13.46875-39.5625-39.5625-14.277344 29.992187-98.875-98.875-164.324219 230.574219 188.265625 188.265625c.425782 0 .851563.015625 1.277344.015625 134.242188 0 244.335938-103.328125 255.117188-234.789062zm0 0" fill="#23272b"/><path d="m382 252.257812c0 69.589844-56.414062 126-126 126s-126-56.410156-126-126c0-69.585937 56.414062-126 126-126s126 56.414063 126 126zm0 0" fill="#ffe000"/><path d="m256 126.257812c-.132812 0-.261719.003907-.394531.003907v251.992187c.132812 0 .261719.003906.394531.003906 69.589844 0 126-56.410156 126-126 0-69.585937-56.410156-126-126-126zm0 0" fill="#ffc200"/><path d="m383.613281 339.476562 18.734375-22.9375-134.734375-65.972656-15.324219-36.277344 133.8125-8.757812v-22.046875l-168.710937-13.464844c14.917969-8.058593 25.164063-24.695312 25.164063-43.921875 0-27.113281-20.371094-49.097656-45.5-49.097656-25.128907 0-45.503907 21.980469-45.503907 49.097656 0 18.878906 9.882813 35.261719 24.363281 43.476563-19.378906-.28125-37.539062 9.425781-48.066406 25.695312l-57.25 101.46875 16.910156 11.214844 67.101563-67.472656 10.773437 24.15625-36.925781 50.808593c-7.757812 10.675782-3.808593 25.777344 8.179688 31.285157l108.546875 18.988281 18.421875-23.933594-74.070313-23.792968 27.84375-23.46875zm0 0" fill="#7e8596"/><path d="m199.75 132.980469h42.359375c.292969-2.25.445313-4.546875.445313-6.882813 0-6.886718-1.320313-13.441406-3.691407-19.386718h-39.113281c-7.253906 0-13.132812 5.878906-13.132812 13.132812s5.878906 13.136719 13.132812 13.136719zm0 0" fill="#ffcdbe"/><path d="m263.605469 341.785156 34.746093 22.839844c9.089844 5.972656 10.285157 18.839844 2.453126 26.386719-6.113282 5.890625-15.640626 6.355469-22.300782 1.085937l-33.320312-26.378906zm0 0" fill="#707789"/><g fill="#636978"><path d="m298.351562 364.625-34.746093-22.839844-8 10.394532v21.792968l22.898437 18.128906c6.65625 5.269532 16.1875 4.804688 22.300782-1.085937 7.832031-7.550781 6.636718-20.414063-2.453126-26.390625zm0 0"/><path d="m383.613281 339.476562 40.398438 14.519532c6.699219 2.40625 14.160156-.277344 17.792969-6.398438 4.925781-8.304687.734374-19.027344-8.515626-21.796875l-30.941406-9.261719zm0 0"/><path d="m386.101562 183.484375h27.207032c5.808594 0 10.515625 4.707031 10.515625 10.511719 0 5.65625-4.472657 10.296875-10.121094 10.507812l-27.601563 1.027344zm0 0"/></g><path d="m87.507812 307.953125-13.394531 15.109375c-1.96875 2.222656-5.335937 2.511719-7.65625.65625-1.757812-1.40625-2.5-3.726562-1.882812-5.890625l6.023437-21.089844zm0 0" fill="#707789"/><path d="m383.613281 339.476562 18.734375-22.9375-134.734375-65.972656-15.324219-36.277344 133.8125-8.757812v-22.046875l-168.710937-13.464844-16.714844 36.414063-32.640625-36.414063s0 0-.003906 0l-1.753906.25c-15.628906 2.476563-29.671875 11.464844-38.433594 25l-57.246094 101.46875 16.910156 11.214844 67.101563-67.472656 10.773437 24.15625-36.925781 50.808593c-7.757812 10.675782-3.808593 25.777344 8.179688 31.285157l108.546875 18.988281 18.421875-23.933594-74.070313-23.792968 27.84375-23.46875zm0 0" fill="#636978"/><path d="m263.605469 341.785156-8-2.570312v12.964844zm0 0" fill="#555a66"/><path d="m386.101562 205.53125v-22.046875l-130.496093-10.414063v41zm0 0" fill="#555a66"/><path d="m383.613281 339.480469 18.734375-22.941407-134.734375-65.972656-12.007812-28.425781v82.71875zm0 0" fill="#555a66"/></svg>