<?xml version="1.0" encoding="iso-8859-1"?>
<!-- Generator: Adobe Illustrator 19.0.0, SVG Export Plug-In . SVG Version: 6.00 Build 0)  -->
<svg version="1.1" id="Capa_1" xmlns="http://www.w3.org/2000/svg" xmlns:xlink="http://www.w3.org/1999/xlink" x="0px" y="0px"
	 viewBox="0 0 512 512" style="enable-background:new 0 0 512 512;" xml:space="preserve">
<path style="fill:#87DCFA;" d="M506.833,261.167c0,76.729-34.602,145.851-89.385,192.004C373.948,489.827,317.72,512,256,512
	c-61.627,0-117.886-22.153-161.428-58.83C39.83,407.069,5.167,338.02,5.167,261.167C5.167,122.635,117.468,10.333,256,10.333
	C394.79,10.333,506.833,122.872,506.833,261.167z"/>
<path style="fill:#82CD64;" d="M152.411,73.622V252.63c0,12.914-3.365,25.074-9.27,35.655c-3.355,6.008-7.525,11.51-12.356,16.341
	c-13.347,13.337-31.743,21.626-51.996,21.626c-40.496,0-73.622-33.136-73.622-73.622V73.622c0-29.977,18.158-55.919,44.016-67.367
	C58.257,2.23,68.27,0,78.789,0C119.285,0,152.411,33.126,152.411,73.622z"/>
<path style="fill:#A5E17D;" d="M152.411,73.622V252.63c0,12.914-3.365,25.074-9.27,35.655c-9.074,4.026-19.097,6.256-29.616,6.256
	c-40.486,0-73.622-33.126-73.622-73.622V41.921c0-12.914,3.376-25.084,9.28-35.665C58.257,2.23,68.27,0,78.789,0
	C119.285,0,152.411,33.126,152.411,73.622z"/>
<path style="fill:#82CD64;" d="M475.098,147.464v154.844c0,11.17-2.911,21.689-8.019,30.842c-2.902,5.197-6.51,9.956-10.688,14.135
	c-11.546,11.537-27.458,18.707-44.977,18.707c-35.03,0-63.684-28.663-63.684-63.684V147.464c0-25.931,15.707-48.371,38.075-58.273
	c7.848-3.483,16.51-5.411,25.61-5.411C446.444,83.78,475.098,112.435,475.098,147.464z"/>
<path style="fill:#A5E17D;" d="M475.098,147.464v154.844c0,11.17-2.911,21.689-8.019,30.842c-7.849,3.482-16.52,5.411-25.618,5.411
	c-35.021,0-63.684-28.654-63.684-63.684V120.043c0-11.17,2.92-21.699,8.027-30.851c7.848-3.483,16.51-5.411,25.61-5.411
	C446.444,83.78,475.098,112.435,475.098,147.464z"/>
<g>
	<path style="fill:#80391B;" d="M125.757,191.312v64.001c0,23.268-17.002,42.623-39.227,46.318v144.457
		c-5.388-4.934-10.56-10.106-15.484-15.495V237.631c-22.039-3.706-38.886-22.896-38.886-45.967v-46.453
		c0-3.458,2.25-6.369,5.368-7.37c0.754-0.237,1.548-0.372,2.374-0.372c4.284,0,7.742,3.458,7.742,7.742v46.453
		c0,14.493,9.961,26.715,23.402,30.163v-98.645c0-4.274,3.468-7.742,7.742-7.742c4.274,0,7.742,3.468,7.742,7.742v162.656
		c13.626-3.458,23.742-15.835,23.742-30.524v-64.001c0-4.274,3.468-7.742,7.742-7.742
		C122.299,183.57,125.757,187.039,125.757,191.312z"/>
	<path style="fill:#80391B;" d="M458.213,221.795v64.001c0,23.257-17.002,42.612-39.227,46.318v119.744
		c-4.996,4.284-10.158,8.361-15.484,12.243V268.114c-22.039-3.706-38.886-22.906-38.886-45.978v-46.453
		c0-4.274,3.468-7.742,7.742-7.742s7.742,3.468,7.742,7.742v46.453c0,14.504,9.961,26.715,23.402,30.174v-98.645
		c0-4.274,3.458-7.742,7.742-7.742c4.274,0,7.742,3.468,7.742,7.742v162.646c13.626-3.458,23.742-15.825,23.742-30.514v-64.001
		c0-4.274,3.468-7.742,7.742-7.742S458.213,217.522,458.213,221.795z"/>
</g>
<path style="fill:#82CD64;" d="M480.779,372.56C439.89,454.936,355.016,512,256,512c-111.765,0-205.878-72.869-238.539-173.093
	c2.901-0.785,5.956-1.208,9.105-1.208c15.893,0,29.303,10.643,33.481,25.192c0.884,3.077,4.101,4.793,7.192,3.956
	c3.389-0.918,6.95-1.41,10.631-1.41c12.33,0,23.378,5.484,30.837,14.138c1.795,2.082,4.764,2.707,7.172,1.38
	c9.727-5.359,20.898-8.416,32.784-8.416c31.013,0,57.157,20.728,65.372,49.087c0.754,2.602,3.205,4.313,5.913,4.189
	c1.783-0.082,3.577-0.125,5.382-0.125c19.446,0,37.796,4.719,53.963,13.078c2.248,1.162,5.001,0.767,6.783-1.03
	c11.977-12.083,28.575-19.572,46.932-19.572c13.361,0,25.788,3.968,36.182,10.78c3.061,2.006,7.133,0.693,8.579-2.669
	c8.12-18.887,26.892-32.112,48.754-32.112c3.989,0,7.87,0.444,11.607,1.277c2.487,0.554,5.029-0.566,6.318-2.763
	c7.254-12.371,20.856-20.573,36.33-20.122C480.778,372.559,480.778,372.559,480.779,372.56z"/>
<path style="fill:#A5E17D;" d="M442.832,428.54C397.051,479.669,330.531,512,256,512c-99.027,0-184.19-57.199-225.037-139.946
	c13.936,1.755,25.301,11.727,29.079,24.909c0.888,3.076,4.108,4.8,7.195,3.964c3.386-0.919,6.947-1.414,10.632-1.414
	c12.325,0,23.381,5.481,30.834,14.142c1.796,2.075,4.769,2.705,7.174,1.373c9.724-5.358,20.904-8.413,32.785-8.413
	c31.01,0,57.157,20.728,65.374,49.085c0.754,2.601,3.2,4.315,5.915,4.191c1.776-0.083,3.572-0.124,5.378-0.124
	c19.448,0,37.792,4.717,53.968,13.079c2.24,1.156,4.996,0.764,6.782-1.032c11.974-12.078,28.573-19.572,46.927-19.572
	c13.358,0,25.786,3.964,36.181,10.777c3.066,2.013,7.133,0.692,8.578-2.663c8.124-18.891,26.891-32.114,48.755-32.114
	c3.985,0,7.866,0.444,11.603,1.28C439.808,429.893,441.511,429.5,442.832,428.54z"/>
<path style="fill:#6EA550;" d="M452.866,416.607c-2.694,3.417-5.481,6.761-8.351,10.023
	C446.745,422.852,449.573,419.467,452.866,416.607z"/>
<path style="fill:#3CAF96;" d="M417.448,453.17C373.948,489.827,317.72,512,256,512c-61.627,0-117.886-22.153-161.428-58.83H417.448
	z"/>
<path style="fill:#FF5A5F;" d="M505.636,285.848c-0.671,6.823-1.621,13.564-2.818,20.212
	c-43.717,27.004-86.567,41.343-116.214,48.765c-36.305,9.094-60.75,10.085-61.772,10.127l-0.289-7.742l-0.289-7.732
	C325.183,349.437,416.695,345.287,505.636,285.848z"/>
<g>
	<path style="fill:#B97D23;" d="M241.679,468.198l-4.353-19.078c-0.415-1.827-0.787-3.663-1.099-5.504
		c-1.478-8.527-1.893-17.212-1.238-25.855l3.4-49.825l-34.302-9.335l-7.419,61.803c-0.561,11.766-0.029,23.576,1.588,35.27
		l2.619,18.902c-2.541,3.335-4.054,7.497-4.054,12.014c0,4.725,3.831,8.556,8.556,8.556h40.141c4.725,0,8.556-3.831,8.556-8.556
		C254.073,478.265,248.945,471.143,241.679,468.198z"/>
	<path style="fill:#B97D23;" d="M277.253,468.198l4.353-19.078c0.415-1.827,0.787-3.663,1.099-5.504
		c1.478-8.527,1.893-17.212,1.238-25.855l-3.4-49.825l34.302-9.335l7.419,61.803c0.561,11.766,0.029,23.576-1.588,35.27
		l-2.619,18.902c2.542,3.335,4.054,7.497,4.054,12.014c0,4.725-3.831,8.556-8.556,8.556h-40.141c-4.725,0-8.556-3.831-8.556-8.556
		C264.859,478.265,269.986,471.143,277.253,468.198z"/>
</g>
<path style="fill:#D29137;" d="M341.116,419.952c-12.29,6.75-25.542,15.8-39.471,23.278c-14.57,7.827-29.889,13.936-45.645,13.936
	c-15.326,0-30.224-5.934-44.422-13.55c-13.943-7.471-27.217-16.55-39.558-23.212l7.419-61.803l0.779-6.517
	c4.936-41.961,37.658-73.378,76.408-73.378c19.368,0,37.235,7.857,50.88,20.955c13.637,13.099,23.052,31.44,25.52,52.424
	l0.241,1.988l7.711,63.527C341.029,418.387,341.079,419.165,341.116,419.952z"/>
<path style="fill:#DCA041;" d="M221.102,486.042h-43.287l-4.209-30.37c-1.617-11.694-2.148-23.503-1.588-35.27l7.419-61.803
	l34.302,9.335l-3.4,49.825c-0.656,8.642-0.241,17.329,1.238,25.855c0.313,1.843,0.684,3.677,1.099,5.504L221.102,486.042z"/>
<path style="fill:#EDC85F;" d="M220.868,495.144h-40.141c-4.725,0-8.556-3.831-8.556-8.556l0,0c0-10.958,8.883-19.841,19.841-19.841
	h17.569c10.958,0,19.841,8.883,19.841,19.841l0,0C229.424,491.313,225.593,495.144,220.868,495.144z"/>
<path style="fill:#DCA041;" d="M339.551,455.673l-4.209,30.37h-43.287l8.424-36.923c0.444-1.951,0.837-3.918,1.165-5.89
	c1.419-8.403,1.813-16.957,1.173-25.469l-4.034-54.31l34.483-9.378l7.711,63.527c0.051,0.787,0.102,1.565,0.138,2.352
	C341.713,431.864,341.189,443.826,339.551,455.673z"/>
<path style="fill:#EDC85F;" d="M292.287,495.144h40.141c4.725,0,8.556-3.831,8.556-8.556l0,0c0-10.958-8.883-19.841-19.841-19.841
	h-17.569c-10.958,0-19.841,8.883-19.841,19.841l0,0C283.731,491.313,287.562,495.144,292.287,495.144z"/>
<path style="fill:#FF4046;" d="M334.739,366.621c-21.149,19.749-49.542,31.831-80.759,31.831c-28.919,0-55.413-10.369-75.972-27.588
	l2.211-18.781c0.191-1.621,0.422-3.219,0.701-4.805c20.124,15.8,45.489,25.22,73.06,25.22c29.695,0,56.842-10.931,77.621-28.995
	c0.608,2.803,1.083,5.668,1.425,8.58L334.739,366.621z"/>
<path style="fill:#A56714;" d="M231.988,251.977l-53.567,9.888c-9.287,1.715-14.263,11.931-9.885,20.3l14.497,27.716
	C183.033,309.881,199.233,263.965,231.988,251.977z"/>
<path style="fill:#B97D23;" d="M153.368,290.867l2.408,10.552c0.724,3.169,4.837,4.004,6.749,1.375
	c27.032-37.183,72.136-56.688,72.136-56.688s-63.439,7.475-68.27,10.501l0,0C154.87,263.825,149.549,277.82,153.368,290.867z"/>
<path style="fill:#A56714;" d="M280.012,251.977l53.567,9.888c9.287,1.715,14.263,11.931,9.885,20.3l-14.497,27.716
	C328.967,309.881,312.767,263.965,280.012,251.977z"/>
<path style="fill:#B97D23;" d="M358.632,290.867l-2.408,10.552c-0.724,3.169-4.837,4.004-6.749,1.375
	c-27.032-37.183-72.136-56.688-72.136-56.688s63.439,7.475,68.27,10.501l0,0C357.13,263.825,362.451,277.82,358.632,290.867z"/>
<path style="fill:#E6B455;" d="M334.097,331.519c0,19.885-11.489,31.404-26.261,38.045c-13.337,5.998-29.358,8.013-42.03,8.61
	c-3.581,0.172-6.894,0.227-9.806,0.227c-21.404,0-38.887-2.954-51.84-8.813c-17.044-7.706-26.257-20.441-26.257-38.07
	c0-34.569,16.855-88.328,78.097-88.328c3.434,0,6.729,0.168,9.89,0.497C319.086,249.163,334.097,298.89,334.097,331.519z"/>
<path style="fill:#FFC772;" d="M334.097,331.519c0,19.885-11.489,31.404-26.261,38.045c-13.337,5.998-29.358,8.013-42.03,8.61
	c-16.91-0.791-30.987-3.666-41.866-8.585c-17.044-7.706-26.257-20.441-26.257-38.07c0-32.628,15.016-82.356,68.207-87.831
	C319.086,249.163,334.097,298.89,334.097,331.519z"/>
<g>
	<circle style="fill:#8E5415;" cx="209.46" cy="297.967" r="8.873"/>
	<circle style="fill:#8E5415;" cx="302.54" cy="297.967" r="8.873"/>
</g>
<g>
	<path style="fill:#D29137;" d="M224.05,309.491c-1.226,0-2.393-0.72-2.905-1.918c-0.684-1.603,0.061-3.457,1.664-4.141l7.169-3.06
		c16.469-7.028,35.426-7.187,52.008-0.437l7.22,2.939c1.615,0.656,2.391,2.498,1.733,4.114c-0.658,1.614-2.498,2.392-4.114,1.733
		l-7.22-2.939c-15.035-6.12-32.222-5.976-47.151,0.396l-7.17,3.06C224.883,309.409,224.463,309.491,224.05,309.491z"/>
	<path style="fill:#D29137;" d="M255.354,292.645c-7.663,0-14.743-4.156-18.479-10.846c-2.016-3.611-6.219-5.401-10.22-4.351
		l-24.917,6.534c-1.687,0.441-3.412-0.567-3.854-2.252c-0.442-1.687,0.567-3.412,2.252-3.854l24.917-6.534
		c6.785-1.778,13.913,1.255,17.333,7.381c2.621,4.695,7.589,7.611,12.966,7.611c4.838,0,9.384-2.366,12.161-6.328l2.002-2.855
		c3.675-5.244,10.304-7.676,16.499-6.052l25.847,6.778c1.687,0.442,2.695,2.168,2.252,3.854c-0.443,1.686-2.167,2.695-3.853,2.252
		l-25.847-6.778c-3.653-0.958-7.561,0.476-9.728,3.569l-2.002,2.855C268.729,289.273,262.249,292.645,255.354,292.645z"/>
	<path style="fill:#D29137;" d="M256.366,273.752c-0.081,0-0.161-0.001-0.242-0.002c-4.54-0.089-8.628-2.663-10.669-6.719
		l-5.152-10.236c-0.783-1.558-0.157-3.455,1.4-4.239c1.557-0.784,3.455-0.157,4.239,1.4l5.152,10.236
		c1.001,1.989,2.928,3.202,5.153,3.245c2.219,0.037,4.198-1.093,5.277-3.042l5.836-10.549c0.844-1.525,2.765-2.078,4.29-1.234
		c1.525,0.843,2.078,2.764,1.234,4.29l-5.836,10.549C264.889,271.355,260.813,273.752,256.366,273.752z"/>
</g>
<path style="fill:#A56714;" d="M256,390.338c-24.619,0-44.089-41.481-44.089-41.481h88.176
	C300.089,348.857,280.619,390.338,256,390.338z"/>
<path style="fill:#B97D23;" d="M290.551,379.922c-10.16,1.688-20.348-2.803-24.99-11.06c-4.764-8.14-4.705-9.111-6.405-10.29
	c-2.576-1.814-6.292-1.107-7.933,1.805l-4.794,8.518c-2.58,4.583-6.982,8.278-12.685,10.096c-3.741,1.195-8.042,1.587-12.76,0.892
	c-12.878-2.168-21.173-13.467-18.316-24.91l2.134-8.531c5.366-21.443,26.64-36.689,51.201-36.689c2.786,0,5.526,0.198,8.207,0.576
	c9.145,1.288,17.587,4.709,24.59,9.726C312.006,336.696,319.683,375.756,290.551,379.922z"/>
<path style="fill:#D29137;" d="M290.551,379.922c-10.16,1.688-20.348-2.803-24.99-11.06c-4.764-8.14-4.705-9.111-6.405-10.29
	c-2.576-1.814-6.292-1.107-7.933,1.805l-4.794,8.518c-2.58,4.583-6.982,8.278-12.685,10.096
	c-10.744-3.493-17.238-13.698-14.662-24.018l2.134-8.531c4.756-19.009,22.023-33.155,42.994-36.113
	c9.145,1.288,17.587,4.709,24.59,9.726C312.006,336.696,319.683,375.756,290.551,379.922z"/>
<path style="fill:#B97D23;" d="M259.157,325.75v32.822c-1.877-1.321-4.44-1.321-6.312,0.004V325.75c0-1.742,1.414-3.157,3.157-3.157
	C257.744,322.593,259.157,324.008,259.157,325.75z"/>
<path style="fill:#A56714;" d="M238.088,320.382c0-7.462,8.02-10.892,17.912-10.892c9.893,0,17.912,3.428,17.912,10.892
	c0,7.462-8.02,11.383-17.912,11.383C246.108,331.765,238.088,327.845,238.088,320.382z"/>
<circle style="fill:#F7D139;" cx="256.098" cy="408.751" r="14.185"/>
<circle style="fill:#EBB410;" cx="256.098" cy="408.751" r="9.65"/>
<g>
</g>
<g>
</g>
<g>
</g>
<g>
</g>
<g>
</g>
<g>
</g>
<g>
</g>
<g>
</g>
<g>
</g>
<g>
</g>
<g>
</g>
<g>
</g>
<g>
</g>
<g>
</g>
<g>
</g>
</svg>
